<svg
        width="24"
        height="24"
        viewBox="0 0 24 24"
        fill="none"
        xmlns="http://www.w3.org/2000/svg"
        aria-hidden="true"
>
    <path
            d="M6 2C4.89543 2 4 2.89543 4 4V20C4 21.1046 4.89543 22 6 22H18C19.1046 22 20 21.1046 20 20V8L14 2H6ZM6 4H13V9H18V20H6V4Z"
            fill="currentColor"
    />
    <path
            d="M8 12H16V13.5H8V12ZM8 15H16V16.5H8V15ZM8 18H13V19.5H8V18Z"
            fill="currentColor"
    />
    <path d="M14 2L20 8H14V2Z" fill="currentColor" />
</svg>